<svg width="0" height="0" class="hidden">
  <symbol aria-hidden="true" data-prefix="fab" data-icon="instagram-square" xmlns="http://www.w3.org/2000/svg" viewBox="0 0 448 512" id="instagram-square-brands">
    <path fill="currentColor" d="M224 202.66A53.34 53.34 0 10277.36 256 53.38 53.38 0 00224 202.66zm124.71-41a54 54 0 00-30.41-30.41c-21-8.29-71-6.43-94.3-6.43s-73.25-1.93-94.31 6.43a54 54 0 00-30.41 30.41c-8.28 21-6.43 71.05-6.43 94.33s-1.85 73.27 6.47 94.34a54 54 0 0030.41 30.41c21 8.29 71 6.43 94.31 6.43s73.24 1.93 94.3-6.43a54 54 0 0030.41-30.41c8.35-21 6.43-71.05 6.43-94.33s1.92-73.26-6.43-94.33zM224 338a82 82 0 1182-82 81.9 81.9 0 01-82 82zm85.38-148.3a19.14 19.14 0 1119.13-19.14 19.1 19.1 0 01-19.09 19.18zM400 32H48A48 48 0 000 80v352a48 48 0 0048 48h352a48 48 0 0048-48V80a48 48 0 00-48-48zm-17.12 290c-1.29 25.63-7.14 48.34-25.85 67s-41.4 24.63-67 25.85c-26.41 1.49-105.59 1.49-132 0-25.63-1.29-48.26-7.15-67-25.85s-24.63-41.42-25.85-67c-1.49-26.42-1.49-105.61 0-132 1.29-25.63 7.07-48.34 25.85-67s41.47-24.56 67-25.78c26.41-1.49 105.59-1.49 132 0 25.63 1.29 48.33 7.15 67 25.85s24.63 41.42 25.85 67.05c1.49 26.32 1.49 105.44 0 131.88z"></path>
  </symbol>
  <symbol aria-hidden="true" data-prefix="fab" data-icon="vk" xmlns="http://www.w3.org/2000/svg" viewBox="0 0 576 512" id="vk-brands">
    <path fill="currentColor" d="M545 117.7c3.7-12.5 0-21.7-17.8-21.7h-58.9c-15 0-21.9 7.9-25.6 16.7 0 0-30 73.1-72.4 120.5-13.7 13.7-20 18.1-27.5 18.1-3.7 0-9.4-4.4-9.4-16.9V117.7c0-15-4.2-21.7-16.6-21.7h-92.6c-9.4 0-15 7-15 13.5 0 14.2 21.2 17.5 23.4 57.5v86.8c0 19-3.4 22.5-10.9 22.5-20 0-68.6-73.4-97.4-157.4-5.8-16.3-11.5-22.9-26.6-22.9H38.8c-16.8 0-20.2 7.9-20.2 16.7 0 15.6 20 93.1 93.1 195.5C160.4 378.1 229 416 291.4 416c37.5 0 42.1-8.4 42.1-22.9 0-66.8-3.4-73.1 15.4-73.1 8.7 0 23.7 4.4 58.7 38.1 40 40 46.6 57.9 69 57.9h58.9c16.8 0 25.3-8.4 20.4-25-11.2-34.9-86.9-106.7-90.3-111.5-8.7-11.2-6.2-16.2 0-26.2.1-.1 72-101.3 79.4-135.6z"></path>
  </symbol>
  <symbol aria-hidden="true" data-prefix="fab" data-icon="youtube" xmlns="http://www.w3.org/2000/svg" viewBox="0 0 576 512" id="youtube-brands">
    <path fill="currentColor" d="M549.655 124.083c-6.281-23.65-24.787-42.276-48.284-48.597C458.781 64 288 64 288 64S117.22 64 74.629 75.486c-23.497 6.322-42.003 24.947-48.284 48.597-11.412 42.867-11.412 132.305-11.412 132.305s0 89.438 11.412 132.305c6.281 23.65 24.787 41.5 48.284 47.821C117.22 448 288 448 288 448s170.78 0 213.371-11.486c23.497-6.321 42.003-24.171 48.284-47.821 11.412-42.867 11.412-132.305 11.412-132.305s0-89.438-11.412-132.305zm-317.51 213.508V175.185l142.739 81.205-142.739 81.201z"></path>
  </symbol>
</svg>
<svg class="icon">
  <use xlink:href="#instagram-square-brands"></use>
</svg><svg class="icon">
  <use xlink:href="#vk-brands"></use>
</svg><svg class="icon">
  <use xlink:href="#youtube-brands"></use>
</svg>